<svg width="580" height="400" xmlns="http://www.w3.org/2000/svg">
 <!-- Created with Method Draw - http://github.com/duopixel/Method-Draw/ -->
 <g>
  <title>background</title>
  <rect fill="#fff" id="canvas_background" height="402" width="582" y="-1" x="-1"/>
  <g display="none" overflow="visible" y="0" x="0" height="100%" width="100%" id="canvasGrid">
   <rect fill="url(#gridpattern)" stroke-width="0" y="0" x="0" height="100%" width="100%"/>
  </g>
 </g>
 <g>
  <title>Layer 1</title>
  <path stroke="#000000" id="svg_3" d="m398.058202,5.265872c-36.027546,24.845772 -85.824346,25.086944 -122.125537,0.740751c-34.913878,23.424105 -82.33122,24.094638 -117.960769,2.01073l-64.066723,58.703007c39.410012,36.763769 39.180954,95.83089 -0.673454,132.342604c-5.289408,12.465815 -8.061621,11.864691 -8.638664,24.418279c-1.357072,30.223806 6.590041,58.418757 31.482934,79.653709c22.23668,18.968754 52.412791,27.013791 81.399318,24.143329c48.403939,2.291412 71.609147,21.499197 81.346142,32.987525c13.147987,-12.275177 33.594311,-32.00892 95.736791,-34.468955c37.096444,-4.905953 50.502294,-12.83151 67.912464,-27.484457c23.433611,-19.989782 31.627502,-45.302795 30.936899,-73.427991c-0.286779,-11.676206 -1.846181,-15.735618 -9.545916,-30.644104c-40.039241,-36.681003 -40.068367,-96.131184 -0.106282,-132.856549l-65.697203,-56.117878z" fill-opacity="null" stroke-width="7" fill="#fff"/>
  <path stroke="#5B9BA2" id="svg_4" d="m168.113003,174.216367c0,0 -3.548966,-7.544391 1.419557,-10.824548c4.968523,-3.280055 21.293573,-32.96548 34.069658,-33.457519c0,0 0.709778,-29.52131 9.936971,-24.601126c9.227267,4.920286 4.968523,8.856393 4.968523,8.856393c0,0 15.615272,-25.585102 19.874016,2.952131c0,0 4.25867,7.380379 20.583721,-13.776578c16.325051,-21.156956 72.357912,-26.185464 99.369935,12.792602c17.389681,25.093165 41.522368,62.486893 22.713056,96.43645c0,0 10.888229,74.574677 -80.090114,63.37578c0,0 -35.249946,-9.253343 -53.349405,-8.269266c-18.099534,0.983976 -33.005027,9.348432 -24.132687,-1.968155c8.872267,-11.316485 32.650101,-11.316485 64.590424,-2.952131c31.940323,8.364456 83.04481,6.88834 83.04481,-43.29799c0,0 -7.807636,3.936209 -11.356528,0.984078c0,0 1.774409,10.824447 -8.517415,9.840471c-10.291897,-0.984078 -19.874016,-5.412223 -30.520766,0.983976c0,0 -3.19404,2.952233 -4.258744,0c0,0 -5.323375,0 -3.548892,-2.952131c0,0 -3.016577,-1.722085 0,-4.920184c3.016577,-3.1981 24.132687,-2.706163 23.422908,-2.952131c-0.709778,-0.245969 0.354852,-3.1981 -1.419557,-2.952131c-1.774483,0.245969 -54.298601,4.674216 -68.13939,-0.984078c0,0 -0.709778,6.642371 -3.548892,3.936209c0,0 -26.262096,3.690138 -31.940323,7.872316c-5.678301,4.182279 -3.726429,0.984078 -5.678301,1.968155c-1.951946,0.983976 -4.081281,5.658192 -6.388079,2.952131c0,0 -7.807636,2.706061 -5.678301,-1.968155c0,0 -2.484188,1.230148 -3.548892,-1.968053c0,0 -3.371503,-1.476015 1.419557,-6.88834c4.791059,-5.412223 24.132687,-5.166153 25.552244,-7.872316c1.41963,-2.706163 0.887241,-4.674216 -3.548892,-3.936209c-4.436133,0.738007 -13.485937,-1.476015 -20.583795,-7.872316c-7.097858,-6.396301 -4.800931,-9.576889 -19.873943,-11.808626c-12.184615,-1.80404 -14.668877,-4.264133 -17.744607,-5.904262c-3.075805,-1.640028 -7.097858,-10.824447 -7.097858,-10.824447z" fill-opacity="null" stroke-width="7" fill="#fff"/>
  <ellipse id="svg_5" cy="210.453125" cx="226" fill-opacity="null" stroke-width="7" stroke="#000000" fill="#fff"/>
 </g>
</svg>